<?xml version="1.0" standalone="no"?>
<!DOCTYPE svg PUBLIC "-//W3C//DTD SVG 1.1//EN" "http://www.w3.org/Graphics/SVG/1.1/DTD/svg11.dtd" >
<!--
2013-9-30: Created.
-->
<svg>
<metadata>
Created by iconfont
</metadata>
<defs>

<font id="iconfont" horiz-adv-x="1024" >
  <font-face
    font-family="iconfont"
    font-weight="500"
    font-stretch="normal"
    units-per-em="1024"
    ascent="896"
    descent="-128"
  />
    <missing-glyph />
    
    <glyph glyph-name="x" unicode="x" horiz-adv-x="1001"
d="M281 543q-27 -1 -53 -1h-83q-18 0 -36.5 -6t-32.5 -18.5t-23 -32t-9 -45.5v-76h912v41q0 16 -0.5 30t-0.5 18q0 13 -5 29t-17 29.5t-31.5 22.5t-49.5 9h-133v-97h-438v97zM955 310v-52q0 -23 0.5 -52t0.5 -58t-10.5 -47.5t-26 -30t-33 -16t-31.5 -4.5q-14 -1 -29.5 -0.5
t-29.5 0.5h-32l-45 128h-439l-44 -128h-29h-34q-20 0 -45 1q-25 0 -41 9.5t-25.5 23t-13.5 29.5t-4 30v167h911zM163 247q-12 0 -21 -8.5t-9 -21.5t9 -21.5t21 -8.5q13 0 22 8.5t9 21.5t-9 21.5t-22 8.5zM316 123q-8 -26 -14 -48q-5 -19 -10.5 -37t-7.5 -25t-3 -15t1 -14.5
t9.5 -10.5t21.5 -4h37h67h81h80h64h36q23 0 34 12t2 38q-5 13 -9.5 30.5t-9.5 34.5q-5 19 -11 39h-368zM336 498v228q0 11 2.5 23t10 21.5t20.5 15.5t34 6h188q31 0 51.5 -14.5t20.5 -52.5v-227h-327z" />
    

    
    <glyph glyph-name="f14" unicode="&#58900;" d="M951.84384 39.164672 858.964992 176.534272c-3.65568 5.244928-11.283456 9.217024-20.578304 10.646528-9.218048 1.350656-19.068928 0-26.377216-3.8144L622.756864 86.277888c-8.582144-4.369408-12.314624-11.121664-9.852928-17.79712 2.622464-6.592512 11.123712-11.838464 21.92896-13.425664l49.975296-7.469056c-49.657856-58.3168-115.441664-93.751296-179.639296-93.751296-125.056 0-264.572928 137.21088-264.572928 333.852672 0 23.199744-31.14496 42.1888-69.599232 42.1888s-69.599232-18.989056-69.599232-42.1888c0-234.381312 177.334272-418.071552 403.770368-418.071552 127.916032 0 242.802688 57.759744 317.723648 157.154304l95.818752-14.45888c2.461696-0.319488 4.845568-0.477184 7.230464-0.477184 0.157696 0 0.157696 0 0.397312 0 16.446464 0 29.794304 8.024064 29.794304 17.954816C956.132352 33.285888 954.543104 36.383488 951.84384 39.164672L951.84384 39.164672zM185.933824 419.894016c-9.295872 1.429504-17.002496 5.243904-20.578304 10.645504L70.729728 570.29504c-4.289536 6.27712-2.224128 13.666304 5.08416 18.671616 7.310336 5.243904 18.910208 7.38816 29.715456 5.799936l95.8976-14.459904c74.923008 99.233792 189.80864 157.233152 317.725696 157.233152 226.435072 0 403.769344-183.770112 403.769344-418.151424 0-23.358464-31.143936-42.1888-69.600256-42.1888-38.453248 0-69.598208 18.830336-69.598208 42.1888 0 196.641792-139.437056 333.853696-264.57088 333.853696-64.196608 0-129.983488-35.434496-179.64032-93.75232l49.975296-7.469056c10.884096-1.826816 19.306496-6.832128 21.927936-13.426688 2.542592-6.674432-1.271808-13.66528-9.85088-18.034688l-189.33248-97.010688c-5.402624-2.78016-12.235776-4.13184-19.147776-4.13184C190.621696 419.416832 188.237824 419.576576 185.933824 419.894016z"  horiz-adv-x="1024" />

    
    <glyph glyph-name="shijian" unicode="&#59049;" d="M912.717498 469.292708c-21.904892 51.791573-53.260018 98.299817-93.192495 138.231271-39.932478 39.932478-86.440721 71.287603-138.232295 93.193519-53.633524 22.685675-110.591771 34.187637-169.292708 34.187637-58.700937 0-115.659183-11.501962-169.292708-34.187637-51.79055-21.905916-98.298793-53.260018-138.231271-93.193519-39.932478-39.932478-71.287603-86.440721-93.193519-138.231271-22.684652-53.633524-34.187637-110.591771-34.187637-169.292708 0-58.700937 11.501962-115.659183 34.187637-169.292708 21.905916-51.791573 53.261041-98.299817 93.193519-138.232295s86.440721-71.287603 138.231271-93.192495c53.633524-22.685675 110.591771-34.187637 169.292708-34.187637 58.699913 0 115.65816 11.501962 169.292708 34.187637 51.791573 21.904892 98.299817 53.260018 138.232295 93.192495s71.287603 86.440721 93.192495 138.232295c22.685675 53.633524 34.187637 110.591771 34.187637 169.292708C946.905134 358.700937 935.403173 415.659183 912.717498 469.292708zM783.344988 28.655012c-72.478731-72.478731-168.844499-112.394836-271.344988-112.394836S313.133743-43.82372 240.655012 28.655012 128.260176 197.499511 128.260176 300c0 102.500489 39.916105 198.866257 112.394836 271.344988s168.844499 112.394836 271.344988 112.394836 198.866257-39.916105 271.344988-112.394836S895.739824 402.500489 895.739824 300C895.739824 197.499511 855.82372 101.133743 783.344988 28.655012zM537.582655 586.525736c0 14.128789-11.453866 25.582655-25.582655 25.582655s-25.582655-11.453866-25.582655-25.582655l0-274.246061c0-2.117221 0.261966-4.172019 0.747014-6.139837-0.485047-1.967818-0.747014-4.022617-0.747014-6.139837 0-14.128789 11.453866-25.582655 25.582655-25.582655l286.525736 0c14.128789 0 25.582655 11.452843 25.582655 25.582655s-11.453866 25.582655-25.582655 25.582655l-260.943081 0L537.582655 586.525736z"  horiz-adv-x="1024" />

    
    <glyph glyph-name="paixu1" unicode="&#58958;" d="M729.138105-109.869839 693.113044-109.869839 690.341886-109.869839C675.196544-109.869839 662.904672-97.577967 662.904672-82.432626L662.904672 877.869839 717.779099 877.869839 717.779099-43.636406 943.944048 182.528543 982.740268 143.732323 729.138105-109.869839ZM306.2209 811.636406 80.055951 585.471457 41.259731 624.267677 294.861893 877.869839 330.914392 877.869839 333.658113 877.869839C348.803455 877.869839 361.095326 865.577967 361.095326 850.432626L361.095326-109.869839 306.2209-109.869839 306.2209 811.636406Z"  horiz-adv-x="1024" />

    
    <glyph glyph-name="jianhao" unicode="&#58953;" d="M229.7875 404.466124l564.423977 0 0-40.932248-564.423977 0 0 40.932248Z"  horiz-adv-x="1024" />

    
    <glyph glyph-name="leimupinleifenleileibie" unicode="&#59385;" d="M320 384 192 384c-70.4 0-128-57.6-128-128l0-128c0-70.4 57.6-128 128-128l128 0c70.4 0 128 57.6 128 128l0 128C448 326.4 390.4 384 320 384zM384 128c0-35.2-28.8-64-64-64L192 64c-35.2 0-64 28.8-64 64l0 128c0 35.2 28.8 64 64 64l128 0c35.2 0 64-28.8 64-64L384 128zM768 832l-128 0C569.6 832 512 774.4 512 704l0-128c0-70.4 57.6-128 128-128l128 0c70.4 0 128 57.6 128 128L896 704C896 774.4 838.4 832 768 832zM832 576c0-35.2-28.8-64-64-64l-128 0C604.8 512 576 540.8 576 576L576 704c0 35.2 28.8 64 64 64l128 0c35.2 0 64-28.8 64-64L832 576zM768 384l-128 0c-70.4 0-128-57.6-128-128l0-128c0-70.4 57.6-128 128-128l128 0c70.4 0 128 57.6 128 128l0 128C896 326.4 838.4 384 768 384zM832 128c0-35.2-28.8-64-64-64l-128 0c-35.2 0-64 28.8-64 64l0 128c0 35.2 28.8 64 64 64l128 0c35.2 0 64-28.8 64-64L832 128zM320 832 192 832C121.6 832 64 774.4 64 704l0-128c0-70.4 57.6-128 128-128l128 0c70.4 0 128 57.6 128 128L448 704C448 774.4 390.4 832 320 832zM384 576c0-35.2-28.8-64-64-64L192 512C156.8 512 128 540.8 128 576L128 704c0 35.2 28.8 64 64 64l128 0c35.2 0 64-28.8 64-64L384 576z"  horiz-adv-x="1024" />

    
    <glyph glyph-name="shanchutianchong" unicode="&#58954;" d="M828.433394 700.443116c-174.768419 174.771489-458.093253 174.771489-632.875998 0-174.767396-174.775582-174.767396-458.107579 0-632.879068 174.782745-174.781722 458.107579-174.781722 632.875998 0C1003.21307 242.33656 1003.21307 525.721769 828.433394 700.443116zM696.913988 252.006803c14.663978-14.662955 14.716166-38.664601-0.00921-53.296857-14.672164-14.672164-38.627762-14.668071-53.290717-0.004093L511.8112 330.508715 380.20072 198.897212c-14.673188-14.673188-38.623669-14.670118-53.29788 0.00307-14.670118 14.671141-14.674211 38.622646-0.002047 53.295833l131.61662 131.615597L326.719668 515.609457c-14.672164 14.673188-14.673188 38.626739-0.00614 53.293787 14.677281 14.677281 38.628786 14.674211 53.30095 0.002047L511.812223 437.108568l131.986033 131.986033c14.667048 14.667048 38.629809 14.673188 53.299927 0.00307 14.674211-14.674211 14.666024-38.634926-0.001023-53.301973L565.111127 383.810688 696.913988 252.006803z"  horiz-adv-x="1024" />

    
    <glyph glyph-name="refresh" unicode="&#58955;" d="M1024 429.056l-221.184 221.184-221.184-221.184h73.728c0 0 155.648-356.352-438.272-438.272 786.432-135.168 733.184 438.272 733.184 438.272l73.728-0zM221.184 138.24l221.184 212.992h-77.824c0 0-155.648 344.064 438.272 425.984-786.432 131.072-729.088-425.984-729.088-425.984h-73.728l221.184-212.992z"  horiz-adv-x="1024" />

    
    <glyph glyph-name="pingjiawuxing" unicode="&#58948;" d="M480.263693 825.005063l-38.07006-70.177316-97.317443-179.393763-197.682291-38.60218L71.125409 521.978515l52.520167-56.998155 137.974421-149.734256-25.062815-203.713658-9.641591-78.354556 71.259974 33.972742 182.085058 86.813205 182.085058-86.813205 71.259974-33.972742-9.641591 78.354556-25.058722 203.713658L836.877717 464.980359l52.520167 56.998155-76.06849 14.853289-197.690478 38.60218-97.31028 179.393763L480.263693 825.005063 480.263693 825.005063 480.263693 825.005063zM480.263693 825.005063"  horiz-adv-x="1024" />

    
    <glyph glyph-name="tupian" unicode="&#59004;" d="M1003.76105 805.509033c0 15.519462-12.58155 28.101012-28.101012 28.101012l-927.320077 0c-15.519462 0-28.101012-12.58155-28.101012-28.101012l0-843.018066c0-15.519462 12.58155-28.101012 28.101012-28.101012l927.320077 0c15.519462 0 28.101012 12.58155 28.101012 28.101012L1003.76105 805.509033zM330.182025 677.723671c49.587372 0 89.790002-40.196491 89.790002-89.783863 0-49.591465-40.202631-89.790002-89.790002-89.790002s-89.788979 40.197514-89.788979 89.790002C240.394069 637.527181 280.595676 677.723671 330.182025 677.723671zM171.818227 74.892967c0 0 24.159236 218.629369 147.153478 217.445404 122.988102-1.179872 155.372673-110.129236 155.372673-110.129236s58.000995 331.670935 212.497719 331.670935c154.50184 0 220.72817-438.987103 220.72817-438.987103L171.818227 74.892967zM351.569124 609.811955"  horiz-adv-x="1024" />

    
    <glyph glyph-name="duihao" unicode="&#58944;" d="M915.74793 554.400187l13.78807 5.832608c-22.863345 54.063906-55.644819 102.693427-97.314433 144.352562-41.665123 41.669614-90.291649 74.457076-144.358549 97.320421C631.86938 825.595509 572.305216 837.620023 511.065825 837.614035c-61.236398 0.005988-120.80655-12.017029-176.800188-35.709754-54.063906-22.863345-102.688936-55.650807-144.352561-97.320421-41.671111-41.657637-74.457076-90.288655-97.31593-144.352562v0.001497C68.908912 504.243649 56.882901 444.670503 56.888889 383.437099c-0.005988-61.240889 12.020023-120.80655 35.709754-176.800187 22.860351-54.065404 55.646316-102.690433 97.31593-144.354058 41.662129-41.669614 90.288655-74.454082 144.352562-97.31593 55.993637-23.689731 115.562292-35.712749 176.79869-35.70676 61.239392-0.005988 120.803556 12.018526 176.795695 35.70676 54.066901 22.861848 102.69193 55.646316 144.357053 97.31593l0.001497 0.001497c41.663626 41.663626 74.449591 90.290152 97.312936 144.352561 23.691228 55.995135 35.714246 115.560795 35.708257 176.801684v0.091322l-13.912327-0.079345h13.913824v0.079345l-13.912327-0.079345h13.913824c0.005988 61.230409-12.018526 120.797567-35.70676 176.783719l-13.789567-5.834105-13.78807-5.832608c22.128281-52.325801 33.335392-107.799953 33.34138-165.118503v-0.091322l13.912327 0.079345h-13.912327v-0.079345l13.912327 0.079345h-13.912327c-0.005988-57.330526-11.211602-112.800187-33.342877-165.136467-21.382737-50.539789-51.930573-95.853287-90.911439-134.846129l0.001497 0.001497c-38.994339-38.985357-84.306339-69.531696-134.849123-90.911439-52.336281-22.128281-107.804444-33.335392-165.133473-33.34138-57.326035 0.005988-112.800187 11.211602-165.134971 33.34138-50.539789 21.38124-95.853287 51.927579-134.843135 90.911439-38.986854 38.992842-69.531696 84.303345-90.911438 134.844632C98.045006 270.636912 86.836398 326.106573 86.830409 383.437099c0.005988 57.323041 11.214596 112.800187 33.344375 165.13048v0.001497c21.378246 50.539789 51.926082 95.857778 90.909941 134.843135 38.991345 38.986854 84.304842 69.53469 134.844632 90.917426C398.265637 796.460912 453.739789 807.666526 511.065825 807.672515c57.329029-0.005988 112.797193-11.213099 165.131976-33.344375 50.545778-21.382737 95.857778-51.930573 134.852117-90.915929 38.98386-38.985357 69.525708-84.300351 90.909942-134.844632l13.78807 5.832608z m-172.316445-53.17614l-10.752 10.416655-266.42414-274.978433 0.002994 0.002994a12.175719 12.175719 0 0 0-4.010666-2.771088 12.21614 12.21614 0 0 0-4.786153-0.95214h-0.029941a12.156257 12.156257 0 0 0-8.238409 3.217216l-0.004492 0.004492-161.247064 148.207532a12.036491 12.036491 0 0 0-2.946246 4.148398 12.377825 12.377825 0 0 0-0.994058 4.872982 12.335906 12.335906 0 0 0 0.802433 4.384936 12.106854 12.106854 0 0 0 2.414783 3.895391l-0.017965-0.019462a12.325427 12.325427 0 0 0 9.051322 3.971743h0.014971c3.048047 0 5.992795-1.148257 8.238409-3.217216l0.007486-0.005989 152.462222-140.132304 258.125848 266.410667-0.002994-0.002994a12.189193 12.189193 0 0 0 4.018152 2.775579 12.180211 12.180211 0 0 0 4.787649 0.95214 12.171228 12.171228 0 0 0 4.593029-0.884772c1.423719-0.577871 2.739649-1.423719 3.920842-2.565988l-0.001497 0.001497a12.081404 12.081404 0 0 0 2.778573-4.078035 12.388304 12.388304 0 0 0 0.07186-9.256421 12.066433 12.066433 0 0 0-2.579462-3.979228l-0.002994-0.002994 10.747508-10.415158 10.749006-10.419649a42.066339 42.066339 0 0 1 8.918082 13.795555 42.263953 42.263953 0 0 1 2.964211 15.562105c0 5.494269-1.065918 10.990035-3.206737 16.166924a42.064842 42.064842 0 0 1-9.609731 14.133895l-0.001497 0.001497a42.162152 42.162152 0 0 1-13.509614 8.810293 42.132211 42.132211 0 0 1-15.834573 3.074994 42.148678 42.148678 0 0 1-16.461848-3.322012 42.147181 42.147181 0 0 1-13.841965-9.50793l-0.04641-0.047906-237.789567-245.421661-130.986667 120.393357 0.01048-0.01048a42.105263 42.105263 0 0 1-28.520795 11.133755h-0.04641 0.002994a42.266947 42.266947 0 0 1-31.03738-13.621895l-0.007485-0.007485-0.011977-0.011977a42.097778 42.097778 0 0 1-11.10531-28.531275c0-5.681404 1.139275-11.355322 3.416328-16.671439a42.004959 42.004959 0 0 1 10.205567-14.395883l161.238082-148.198549-0.013474 0.013473a42.097778 42.097778 0 0 1 28.528281-11.139742h0.029942a42.180117 42.180117 0 0 1 16.457356 3.320514 42.115743 42.115743 0 0 1 13.837474 9.503439l0.002994 0.002994 266.42414 274.978433-0.002994-0.002994-10.750503 10.419649z"  horiz-adv-x="1024" />

    
    <glyph glyph-name="dingwei" unicode="&#58888;" d="M521.024-88.608c-27.68 0-50.592 20.736-53.152 23.104-0.288 0.288-21.632 20.928-121.216 120.48-73.984 73.92-127.968 163.584-153.536 210.336l-6.24 11.488c-4.704 9.152-7.232 14.24-7.232 14.24a22.912 22.912 0 0 0-1.568 4.352 372.736 372.736 0 0 0-33.504 154.528c0 207.616 168.896 376.448 376.48 376.448S897.472 657.504 897.472 449.92c0-53.472-11.296-105.6-33.632-154.912a25.92 25.92 0 0 0-1.504-3.968l-13.632-26.016c-25.44-46.56-79.424-136.032-153.376-210.048-99.584-99.648-120.864-120.192-120.864-120.192-2.816-2.656-25.792-23.392-53.376-23.392z m-296.448 397.76l10.688-20.448c24.544-44.768 75.744-129.92 145.504-199.584 98.624-98.624 120.096-119.456 120.352-119.744 4.064-3.68 13.632-9.696 19.904-9.696 6.688 0 16.992 7.072 20.128 9.984 0 0 21.568 21.024 120 119.456 69.696 69.664 120.96 154.816 145.344 199.392l10.976 20.832c0.288 1.024 0.672 1.984 1.024 2.912 20.288 43.744 30.624 90.112 30.624 137.728 0 180.928-147.2 328.192-328.128 328.192-180.96 0-328.224-147.264-328.224-328.192 0-47.616 10.272-93.888 30.624-137.728 0.48-1.056 0.864-2.08 1.216-3.104z m296.448-34.976c-96.928 0-175.744 78.816-175.744 175.744s78.816 175.744 175.744 175.744 175.744-78.816 175.744-175.744-78.88-175.744-175.744-175.744z m0 303.2a127.552 127.552 0 0 1-127.488-127.456c0-70.24 57.216-127.456 127.488-127.456s127.488 57.216 127.488 127.456a127.584 127.584 0 0 1-127.488 127.456z"  horiz-adv-x="1024" />

    
    <glyph glyph-name="tongzhi" unicode="&#58952;" d="M186.181818 521.309091h79.127273V337.454545H186.181818v183.854546zM439.854545 256h-79.127272s11.636364-107.054545 95.418182-221.090909c0 0 72.145455-2.327273 83.781818 27.927273 0 0 6.981818 20.945455-16.290909 46.545454-6.981818 13.963636-72.145455 72.145455-83.781819 146.618182zM723.781818 733.090909c-141.963636-176.872727-414.254545-186.181818-414.254545-186.181818v-235.054546c321.163636-16.290909 416.581818-141.963636 416.581818-141.963636C849.454545 202.472727 837.818182 430.545455 837.818182 430.545455c9.309091 332.8-114.036364 302.545455-114.036364 302.545454z"  horiz-adv-x="1024" />

    
    <glyph glyph-name="jiantou-xiaoxia" unicode="&#58990;" d="M512 25.6c-33.4848 0-64.8192 13.5168-88.1664 38.0928l-359.0144 387.9936a51.2 51.2 0 1 0 75.264 69.5296l358.4-387.3792A18.432 18.432 0 0 1 512 128a19.2512 19.2512 0 0 1 14.1312 6.3488l357.888 386.7648a51.2 51.2 0 0 0 75.1616-69.5296l-358.5024-387.4816A121.856 121.856 0 0 0 512 25.6z"  horiz-adv-x="1024" />

    
    <glyph glyph-name="xiaolian" unicode="&#58906;" d="M594.944 441.344c0.512 19.968 16.896 35.328 36.352 34.816s35.328-16.896 34.816-36.352c-0.512-19.456-16.384-34.816-35.84-34.816s-35.84 16.384-35.328 36.352z m-218.112 0c0.512 19.968 16.896 35.328 36.352 35.328 19.968-0.512 35.328-16.896 35.328-36.352-0.512-19.456-16.384-35.328-35.84-35.328-19.968 0-36.352 16.384-35.84 36.352z m254.976-111.616c0 11.776 9.216 20.992 20.992 21.504h36.864c11.776 0 21.504-9.728 20.992-21.504 0-11.776-9.728-20.992-20.992-20.992h-17.408c-9.728-69.12-68.096-115.712-148.48-115.712s-138.752 46.592-148.48 115.712h-18.432c-11.776 0-21.504 9.728-20.992 21.504 0 11.776 9.728 20.992 20.992 20.992h37.888c11.776 0 20.992-9.728 20.992-21.504 0-65.536 54.272-94.72 108.032-94.72s108.032 29.184 108.032 94.72z m-116.224-270.848c-172.032 2.048-309.248 143.36-307.2 315.392 2.048 167.936 137.216 303.616 305.152 307.2 2.56 1.024 6.656 3.584 9.728 5.632 13.824 9.216 29.696 15.872 45.568 19.968 11.264 2.048 22.016-5.632 24.064-16.896v-0.512c2.048-11.264-5.12-22.528-16.896-24.576-11.264-3.072-22.528-8.192-32.256-14.848-8.192-6.144-17.92-10.24-28.16-11.264-148.48 2.56-270.848-115.2-273.92-263.68-2.56-148.48 115.2-270.848 263.68-273.92 148.48-2.56 270.848 115.2 273.92 263.68v5.12c0 67.584-25.088 132.608-70.656 182.784-2.56 3.072-10.752 11.776-37.376 97.792-64-69.12-82.432-59.392-91.648-54.272-10.24 5.632-13.824 18.432-8.192 28.672 4.096 7.68 12.288 12.288 20.992 10.752 27.136 20.48 51.2 44.032 72.192 70.656 5.12 5.632 12.8 8.704 19.968 7.168 7.68-1.536 13.312-7.168 15.872-14.848 11.264-40.448 24.576-79.872 39.936-118.272 52.224-57.856 80.896-132.608 80.384-210.432 1.536-170.496-135.168-309.76-305.152-311.296z"  horiz-adv-x="1024" />

    
    <glyph glyph-name="xiangshangjiantouarrowup" unicode="&#58881;" d="M880.101759 142.5100980000003c18.020155-17.819854 47.143649-17.819854 65.097286 0 17.953637 17.753339 17.953637 46.610574 0 64.429405L544.042085 602.8935099999999c-18.020155 17.819854-47.077131 17.819854-65.097286 0L77.787839 206.94052600000032c-17.953637-17.819854-18.020155-46.610574 0-64.429405s47.210166-17.819854 65.097286-0.066515l368.641064 350.141612L880.101759 142.5100980000003 880.101759 142.5100980000003z"  horiz-adv-x="1024" />

    
    <glyph glyph-name="duosetubiao" unicode="&#58989;" d="M491.84 188.304c0-99.464-80.632-180.088-180.096-180.088-99.456 0-180.088 80.624-180.088 180.088s80.632 180.088 180.088 180.088H491.84v-180.088zM711.944 368.392H531.856v-180.088c0-99.464 80.624-180.088 180.088-180.088s180.096 80.624 180.096 180.088-80.632 180.088-180.096 180.088z m3.464-322.448c-78.616 0-142.376 63.736-142.376 142.36V330.664h142.376c78.624 0 142.344-63.744 142.344-142.36 0-78.624-63.72-142.36-142.344-142.36zM311.744 768.592c-99.456 0-180.088-80.632-180.088-180.088 0-99.464 80.632-180.096 180.088-180.096H491.84V588.504c0 99.456-80.632 180.088-180.096 180.088z m142.36-317.112H311.728c-78.624 0-142.344 63.744-142.344 142.36 0 78.624 63.72 142.36 142.344 142.36 78.616 0 142.376-63.736 142.376-142.36v-142.36zM711.952 408.408c99.456 0 180.096 80.64 180.096 180.096 0 99.464-80.64 180.096-180.096 180.096-99.464 0-180.096-80.632-180.096-180.096v-180.096h180.096z"  horiz-adv-x="1024" />

    
    <glyph glyph-name="shaixuan2" unicode="&#58882;" d="M516.352821 351.157249l11.122663 10.487082 17.30192 16.383858a12966.835527 12966.835527 0 0 1 201.44378 195.370454c81.813364 81.495573 140.675201 143.782485 166.663391 177.503573 24.928889 32.449927 27.012181 49.999017 18.996802 60.274239-6.602978 8.50972-22.951526 14.865527-31.320006 14.159327-15.607038-1.306471-155.081698-1.553642-391.658969-1.165232a195025.615848 195025.615848 0 0 0-334.315462 0.882751L133.839153 825.159231l-10.593012 0.03531c-27.118111-6.567668-34.391979-13.982776-34.95694-24.010827-0.635581-11.722933 4.696235-26.48253 18.325911-54.165602 12.499754-21.715675 76.834648-89.899363 172.030517-183.54159l15.006767-14.724287a12028.965543 12028.965543 0 0 1 195.617624-187.001974l11.193283-10.487082v-343.213593l15.889518-8.015379V351.157249z m-92.194516-25.140749a13457.044819 13457.044819 0 0 0-195.017353 187.143214C126.812455 613.7933290000001 62.865972 681.659227 44.398821 713.720744 24.024927 754.9981809999999 16.256718 776.431376 17.81036 805.067818 20.282063 850.44122 52.97916 881.867156 111.593828 895.002491l3.884104 0.847441h3.990035l14.688976-0.07062L174.7988 895.638072a247597.781674 247597.781674 0 0 1 334.244843-0.847441c225.313368-0.3531 373.333057-0.10593 385.585641 0.918061 31.214076 2.648253 70.973181-12.888165 93.006647-41.136197 30.225395-38.841044 24.010827-91.029284-18.784942-146.713218-28.565823-37.075542-88.698822-100.704235-172.772028-184.494961l-16.807579-16.701649a11746.061499 11746.061499 0 0 0-192.29848-185.942673v-435.514039l-157.09437 79.412281V320.614064l-5.720227 5.402436z"  horiz-adv-x="1024" />

    
    <glyph glyph-name="fanhui" unicode="&#58916;" d="M710.153924 887.019603L266.007127 435.307476a81.118646 81.118646 0 0 1 0.861532-114.476097l446.192936-441.050666a26.922883 26.922883 0 0 1 37.853573 38.284339L304.722232 359.115718a27.27288 27.27288 0 0 0-0.323074 38.445877L748.545955 849.273722A26.922883 26.922883 0 1 1 710.180847 886.99268z"  horiz-adv-x="1024" />

    
    <glyph glyph-name="faxian" unicode="&#58929;" d="M512-76.8c-253.44 0-460.8 207.36-460.8 460.8S258.56 844.8 512 844.8s460.8-207.36 460.8-460.8-207.36-460.8-460.8-460.8z m0 51.2c225.28 0 409.6 184.32 409.6 409.6S737.28 793.6 512 793.6 102.4 609.28 102.4 384s184.32-409.6 409.6-409.6z m0 204.8c-143.36 0-281.6 104.96-281.6 204.8s138.24 204.8 281.6 204.8 281.6-104.96 281.6-204.8-138.24-204.8-281.6-204.8z m0 51.2c117.76 0 230.4 87.04 230.4 153.6s-112.64 153.6-230.4 153.6-230.4-87.04-230.4-153.6 112.64-153.6 230.4-153.6z m0 51.2c-56.32 0-102.4 46.08-102.4 102.4s46.08 102.4 102.4 102.4 102.4-46.08 102.4-102.4-46.08-102.4-102.4-102.4z m0 51.2c28.16 0 51.2 23.04 51.2 51.2s-23.04 51.2-51.2 51.2-51.2-23.04-51.2-51.2 23.04-51.2 51.2-51.2z"  horiz-adv-x="1024" />

    
    <glyph glyph-name="dizhiguanli" unicode="&#58943;" d="M821.653333 262.186667L576.533333-21.333333a85.333333 85.333333 0 0 0-129.066666-0.064L198.634667 266.048c-1.152 1.322667-2.133333 2.773333-2.88 4.266667A361.088 361.088 0 0 0 149.333333 448c0 200.298667 162.368 362.666667 362.666667 362.666667s362.666667-162.368 362.666667-362.666667c0-63.744-16.490667-125.162667-47.381334-179.370667a21.269333 21.269333 0 0 0-5.632-6.421333zM792.32 293.546667A318.442667 318.442667 0 0 1 832 448c0 176.725333-143.274667 320-320 320-176.725333 0-320-143.274667-320-320 0-55.317333 14.037333-108.522667 40.384-155.733333l247.317333-285.738667a42.666667 42.666667 0 0 1 64.554667 0.021333L792.32 293.546667zM512 298.666667a149.333333 149.333333 0 1 0 0 298.666666 149.333333 149.333333 0 0 0 0-298.666666z m0 42.666666a106.666667 106.666667 0 1 1 0 213.333334 106.666667 106.666667 0 0 1 0-213.333334z"  horiz-adv-x="1024" />

    
    <glyph glyph-name="xiangyoujiantou" unicode="&#58892;" d="M761.6 406.4l-432 435.2c-9.6 9.6-25.6 9.6-35.2 0-9.6-9.6-9.6-25.6 0-35.2l416-416-416-425.6c-9.6-9.6-9.6-25.6 0-35.2s25.6-9.6 35.2 0l432 441.6c9.6 9.6 9.6 25.6 0 35.2z"  horiz-adv-x="1024" />

    
    <glyph glyph-name="tanhao" unicode="&#58914;" d="M512-128c-285.257143 0-512 226.742857-512 512s226.742857 512 512 512 512-226.742857 512-512-226.742857-512-512-512z m0 73.142857c241.371429 0 438.857143 197.485714 438.857143 438.857143s-197.485714 438.857143-438.857143 438.857143-438.857143-197.485714-438.857143-438.857143 197.485714-438.857143 438.857143-438.857143zM512 237.714286c21.942857 0 36.571429-7.314286 51.2-21.942857 14.628571-14.628571 21.942857-29.257143 21.942857-51.2 0-21.942857-7.314286-36.571429-21.942857-51.2-14.628571-14.628571-29.257143-21.942857-51.2-21.942858-21.942857 0-36.571429 7.314286-51.2 21.942858-14.628571 14.628571-21.942857 29.257143-21.942857 51.2 0 21.942857 7.314286 36.571429 21.942857 51.2 14.628571 14.628571 29.257143 21.942857 51.2 21.942857z m65.828571 73.142857h-124.342857l21.942857 365.714286h80.457143l21.942857-365.714286z"  horiz-adv-x="1024" />

    
    <glyph glyph-name="icon-test" unicode="&#58967;" d="M359.765333 392.192c-49.152 0-89.429333 38.912-89.429333 87.04S310.613333 566.2719999999999 359.765333 566.2719999999999c49.493333 0 89.429333-38.912 89.429334-87.04s-39.936-87.04-89.429334-87.04zM811.690667 717.141333H214.698667c-64.170667 0-116.053333-52.224-116.053334-116.053333v-439.296c0-64.170667 52.224-116.053333 116.053334-116.053333h596.992c64.170667 0 116.053333 52.224 116.053333 116.053333V600.746667c0.341333 64.170667-51.882667 116.394667-116.053333 116.394666zM139.946667 600.746667c0 41.301333 33.450667 74.752 74.752 74.752h596.992c41.301333 0 74.752-33.450667 74.752-74.752v-317.44l-116.053334 112.981333c-44.373333 44.373333-110.933333 50.176-148.48 12.629333l-150.186666-151.552-48.469334 49.152c-35.498667 35.498667-94.208 34.474667-130.730666-2.048l-151.552-151.210666c-0.341333 3.072-1.024 5.802667-1.024 8.874666V600.746667z"  horiz-adv-x="1024" />

    
    <glyph glyph-name="iconjia" unicode="&#58880;" d="M937.02421191 319.82786374h-361.25758849v-361.31520829c0-35.21003908-28.55658433-63.73835711-63.76771059-63.73835711-35.21003908 0-63.76662342 28.52831802-63.76662341 63.73835711v361.31520829h-361.25976283c-35.23939256 0-63.76662342 28.52831802-63.76662341 63.73835711 0 35.1969931 28.53049235 63.73835711 63.76662341 63.7383571h361.2575885v361.31520827c0 35.1969931 28.55658433 63.73835711 63.76662341 63.73835711 35.21112625 0 63.76771058-28.54245117 63.76771059-63.73835711v-361.31629543h361.25758849c35.23939256 0 63.76771058-28.54027684 63.76771058-63.73618278-0.00108717-35.21003908-28.52831802-63.73618278-63.76771058-63.73618278z"  horiz-adv-x="1024" />

    
    <glyph glyph-name="zhulianxiren" unicode="&#59002;" d="M23.095467 596.992h166.997333V636.586667H23.095467v-39.68z m-2.645334-2.730667h171.861334v45.141334H20.450133v-45.141334zM23.095467 384.853333h166.997333v39.765334H23.095467v-39.765334z m-2.645334-2.730666h171.861334v45.141333H20.450133v-45.141333zM64.994133 85.674667v-168.618667c0-1.621333 0.512-41.301333 41.386667-41.301333h806.058667c40.789333 0 41.386667 39.68 41.386666 41.301333V850.432c0 40.874667-39.253333 41.386667-41.386666 41.386667H106.3808C104.674133 891.733333 64.9088 891.306667 64.9088 850.432v-126.208h39.765333V851.626667h808.192v-935.509334H105.271467V85.674667H64.994133z m847.445334-212.138667H106.3808c-43.008 0-43.52 43.008-43.52 43.52V87.893333h45.056v-169.813333h803.498667V848.896H107.4048v-127.232H62.3488V850.432c0 43.008 42.922667 43.52 43.52 43.52h806.570667c0.512 0 43.52-0.512 43.52-43.52v-932.778667c0-1.109333-0.512-44.117333-43.52-44.117333zM523.1488 290.816h-11.946667A156.16 156.16 0 0 0 361.527467 447.146667c0 86.442667 69.802667 156.245333 155.733333 156.245333a156.330667 156.330667 0 0 0 5.973333-312.576m240.042667-146.005333a280.32 280.32 0 0 1-142.336 126.72c14.506667 8.533333 27.904 19.285333 39.68 31.146666a201.898667 201.898667 0 0 1 59.648 143.957334c0 54.186667-21.504 105.216-59.648 143.872a199.68 199.68 0 0 1-143.36 59.648 199.68 199.68 0 0 1-143.36-59.648 201.898667 201.898667 0 0 1-59.648-143.872 204.117333 204.117333 0 0 1 99.328-175.104 280.32 280.32 0 0 1-142.250667-126.72 23.978667 23.978667 0 0 1 9.642667-32.768 24.405333 24.405333 0 0 1 32.256 9.642666 233.642667 233.642667 0 0 0 197.632 121.344h12.8c82.773333-2.133333 158.464-48.810667 197.717333-121.344a23.722667 23.722667 0 0 1 20.906667-12.373333c4.266667 0 8.021333 1.109333 11.264 2.730667a23.978667 23.978667 0 0 1 9.728 32.768M20.450133 170.581333h171.861334v45.056H20.450133zM191.202133 215.210667v0.170666H21.474133v-0.256a22.357333 22.357333 0 1 1 11.946667-42.154666h147.285333a22.357333 22.357333 0 1 1 10.496 42.24M190.8608 639.146667a22.357333 22.357333 0 0 1-7.082667-1.109334H30.3488A22.272 22.272 0 0 1 0.9088 616.789333a22.357333 22.357333 0 0 1 29.44-21.162666h153.429333a22.357333 22.357333 0 1 1 7.082667 43.52M912.439467 892.842667H106.3808s-42.496 0-42.496-42.410667v-119.296a22.186667 22.186667 0 0 1 20.821333-30.72 22.357333 22.357333 0 0 1 21.674667 27.904V850.432h806.058667v-932.778667H106.3808V77.653333a22.186667 22.186667 0 0 1-20.394667 31.573334 22.357333 22.357333 0 0 1-22.101333-25.856v-165.802667c0-0.597333 0-43.008 42.496-43.008h806.058667c42.410667 0 42.410667 42.410667 42.410666 42.410667V850.432c-0.512 42.410667-42.410667 42.410667-42.410666 42.410667M190.8608 427.008a22.357333 22.357333 0 0 1-7.082667-1.194667H30.3488A22.272 22.272 0 0 1 0.9088 404.650667a22.357333 22.357333 0 0 1 29.44-21.333334h153.429333a22.357333 22.357333 0 1 1 7.082667 43.690667"  horiz-adv-x="1024" />

    


  </font>
</defs>
</svg>
